<svg width="184" height="181" viewBox="0 0 184 181" fill="none" xmlns="http://www.w3.org/2000/svg">
<path fill-rule="evenodd" clip-rule="evenodd" d="M91.9901 0L0.757324 91.2328L48.495 138.97L55.5391 131.926L14.8455 91.2328L91.9901 14.0881L130.977 53.0747V30.8436L137.192 30.8436V59.2903L169.135 91.2328L128.441 131.926L135.485 138.97L183.223 91.2328L147.154 55.164V20.8818L121.015 20.8818L121.015 29.0247L91.9901 0ZM55.6733 144.297L91.99 107.98L128.307 144.297L91.99 180.614L55.6733 144.297ZM119.228 108.625L91.9901 81.3873L64.7526 108.625L47.3606 91.2328L91.9901 46.6032L136.62 91.2328L119.228 108.625ZM64.7526 122.713L91.9901 95.4754L119.228 122.713L150.708 91.2328L91.9901 32.5151L33.2725 91.2328L64.7526 122.713Z" fill="#FFD700"/>
</svg>
