<svg width="1015" height="243" viewBox="0 0 1015 243" fill="none" xmlns="http://www.w3.org/2000/svg">
<path fill-rule="evenodd" clip-rule="evenodd" d="M122.99 29.0198L31.7573 120.253L79.495 167.99L86.5391 160.946L45.8455 120.253L122.99 43.1079L161.977 82.0944V59.8634L168.192 59.8634V88.3101L200.135 120.253L159.441 160.946L166.485 167.99L214.223 120.253L178.154 84.1837V49.9016L152.015 49.9016L152.015 58.0445L122.99 29.0198ZM86.6733 173.317L122.99 137L159.307 173.317L122.99 209.633L86.6733 173.317ZM150.228 137.645L122.99 110.407L95.7526 137.645L78.3606 120.253L122.99 75.623L167.62 120.253L150.228 137.645ZM95.7526 151.733L122.99 124.495L150.228 151.733L181.708 120.253L122.99 61.5349L64.2725 120.253L95.7526 151.733Z" fill="#090B3D"/>
<path d="M262.93 176V68.2H302.046C310.67 68.2 317.754 69.6373 323.298 72.512C328.945 75.3867 333.103 79.288 335.772 84.216C338.544 89.144 339.93 94.7393 339.93 101.002C339.93 106.957 338.595 112.398 335.926 117.326C333.359 122.254 329.253 126.207 323.606 129.184C317.959 132.161 310.773 133.65 302.046 133.65H281.41V176H262.93ZM281.41 118.558H300.968C308.155 118.558 313.288 116.967 316.368 113.784C319.551 110.601 321.142 106.341 321.142 101.002C321.142 95.458 319.551 91.146 316.368 88.066C313.288 84.8833 308.155 83.292 300.968 83.292H281.41V118.558ZM369.676 177.848C363.619 177.848 358.588 176.821 354.584 174.768C350.683 172.612 347.757 169.789 345.806 166.298C343.958 162.705 343.034 158.803 343.034 154.594C343.034 149.769 344.266 145.611 346.73 142.12C349.297 138.527 353.044 135.755 357.972 133.804C362.9 131.751 369.009 130.724 376.298 130.724H395.856C395.856 126.515 395.24 123.075 394.008 120.406C392.879 117.634 391.082 115.632 388.618 114.4C386.257 113.065 383.279 112.398 379.686 112.398C375.477 112.398 371.781 113.425 368.598 115.478C365.518 117.429 363.67 120.509 363.054 124.718H344.882C345.395 119.174 347.192 114.4 350.272 110.396C353.352 106.392 357.407 103.312 362.438 101.156C367.571 98.8973 373.372 97.768 379.84 97.768C387.129 97.768 393.341 99.0513 398.474 101.618C403.71 104.082 407.663 107.624 410.332 112.244C413.001 116.864 414.336 122.459 414.336 129.03V176H399.09L397.088 163.68H396.472C395.035 166.144 393.341 168.249 391.39 169.994C389.439 171.739 387.335 173.177 385.076 174.306C382.92 175.435 380.507 176.308 377.838 176.924C375.271 177.54 372.551 177.848 369.676 177.848ZM375.374 163.218C378.454 163.218 381.175 162.705 383.536 161.678C386 160.549 388.053 159.009 389.696 157.058C391.339 155.107 392.622 152.9 393.546 150.436C394.573 147.972 395.189 145.354 395.394 142.582H378.3C374.604 142.582 371.575 143.044 369.214 143.968C366.853 144.892 365.107 146.175 363.978 147.818C362.951 149.358 362.438 151.155 362.438 153.208C362.438 155.364 362.951 157.212 363.978 158.752C365.107 160.189 366.596 161.319 368.444 162.14C370.395 162.859 372.705 163.218 375.374 163.218ZM458.15 176C453.017 176 448.5 175.179 444.598 173.536C440.697 171.893 437.668 169.173 435.512 165.374C433.459 161.575 432.432 156.442 432.432 149.974V114.092H419.342V99.616H432.432L434.434 79.596H450.912V99.616H471.856V114.092H450.912V149.974C450.912 154.183 451.734 157.058 453.376 158.598C455.019 160.138 457.894 160.908 462 160.908H471.24V176H458.15ZM479.643 176V68.2H497.815V112.398H498.431C501.306 107.573 504.899 103.928 509.211 101.464C513.523 99 518.554 97.768 524.303 97.768C530.36 97.768 535.545 99.1027 539.857 101.772C544.169 104.339 547.454 108.24 549.713 113.476C552.074 118.609 553.255 124.975 553.255 132.572V176H534.929V134.42C534.929 127.644 533.543 122.459 530.771 118.866C528.102 115.17 523.841 113.322 517.989 113.322C514.293 113.322 510.905 114.246 507.825 116.094C504.745 117.942 502.332 120.611 500.587 124.102C498.944 127.49 498.123 131.648 498.123 136.576V176H479.643ZM565.516 176V68.2H634.354V83.138H583.996V114.708H625.114V129.338H583.996V176H565.516ZM645.263 176V99.616H663.743V176H645.263ZM654.503 88.374C651.115 88.374 648.291 87.3473 646.033 85.294C643.877 83.138 642.799 80.4687 642.799 77.286C642.799 74.206 643.877 71.6393 646.033 69.586C648.291 67.43 651.115 66.352 654.503 66.352C657.891 66.352 660.714 67.43 662.973 69.586C665.231 71.6393 666.361 74.2573 666.361 77.44C666.361 80.52 665.231 83.138 662.973 85.294C660.714 87.3473 657.891 88.374 654.503 88.374ZM678.742 176V99.616H694.604L696.144 111.936H696.76C699.327 107.521 702.715 104.082 706.924 101.618C711.236 99.0513 716.523 97.768 722.786 97.768C728.946 97.768 734.233 99.1027 738.648 101.772C743.063 104.339 746.451 108.24 748.812 113.476C751.173 118.609 752.354 124.975 752.354 132.572V176H734.028V134.42C734.028 127.644 732.591 122.459 729.716 118.866C726.944 115.17 722.632 113.322 716.78 113.322C712.981 113.322 709.593 114.246 706.616 116.094C703.741 117.942 701.431 120.611 699.686 124.102C698.043 127.49 697.222 131.648 697.222 136.576V176H678.742ZM797.435 177.848C790.146 177.848 783.78 176.103 778.339 172.612C773 169.121 768.842 164.399 765.865 158.444C762.99 152.387 761.553 145.508 761.553 137.808C761.553 130.211 762.99 123.383 765.865 117.326C768.842 111.269 773.103 106.495 778.647 103.004C784.191 99.5133 790.762 97.768 798.359 97.768C804.622 97.768 809.96 99 814.375 101.464C818.892 103.928 822.383 106.905 824.847 110.396V68.2H843.327V176H827.927L826.695 162.14H826.079C824.128 165.528 821.716 168.403 818.841 170.764C815.966 173.023 812.732 174.768 809.139 176C805.648 177.232 801.747 177.848 797.435 177.848ZM802.517 162.448C807.137 162.448 811.09 161.421 814.375 159.368C817.763 157.212 820.381 154.286 822.229 150.59C824.18 146.894 825.155 142.582 825.155 137.654C825.155 132.829 824.18 128.568 822.229 124.872C820.381 121.176 817.763 118.301 814.375 116.248C811.09 114.092 807.137 113.014 802.517 113.014C798.102 113.014 794.201 114.092 790.813 116.248C787.425 118.301 784.807 121.176 782.959 124.872C781.111 128.568 780.187 132.829 780.187 137.654C780.187 142.582 781.111 146.894 782.959 150.59C784.807 154.286 787.425 157.212 790.813 159.368C794.201 161.421 798.102 162.448 802.517 162.448ZM893.313 177.848C885.613 177.848 878.786 176.205 872.831 172.92C866.979 169.532 862.359 164.912 858.971 159.06C855.686 153.105 854.043 146.175 854.043 138.27C854.043 130.262 855.686 123.229 858.971 117.172C862.257 111.115 866.825 106.392 872.677 103.004C878.632 99.5133 885.562 97.768 893.467 97.768C900.962 97.768 907.533 99.462 913.179 102.85C918.929 106.135 923.343 110.55 926.423 116.094C929.606 121.638 931.197 127.901 931.197 134.882C931.197 135.909 931.197 137.038 931.197 138.27C931.197 139.502 931.095 140.837 930.889 142.274H867.441V130.416H912.563C912.255 124.769 910.305 120.355 906.711 117.172C903.118 113.887 898.652 112.244 893.313 112.244C889.515 112.244 885.973 113.117 882.687 114.862C879.505 116.505 876.938 119.071 874.987 122.562C873.139 125.95 872.215 130.313 872.215 135.652V140.118C872.215 144.841 873.139 148.896 874.987 152.284C876.835 155.672 879.351 158.29 882.533 160.138C885.819 161.883 889.361 162.756 893.159 162.756C897.369 162.756 900.911 161.832 903.785 159.984C906.66 158.033 908.816 155.415 910.253 152.13H929.041C927.604 157.058 925.191 161.473 921.803 165.374C918.518 169.173 914.463 172.201 909.637 174.46C904.812 176.719 899.371 177.848 893.313 177.848ZM940.422 176V99.616H956.284L957.824 116.248H958.44C960.801 110.909 963.265 106.905 965.832 104.236C968.501 101.567 971.53 99.8213 974.918 99C978.306 98.1787 982.258 97.768 986.776 97.768V117.172H981.848C978.152 117.172 974.815 117.634 971.838 118.558C968.963 119.482 966.55 120.868 964.6 122.716C962.752 124.461 961.314 126.771 960.288 129.646C959.364 132.418 958.902 135.806 958.902 139.81V176H940.422Z" fill="white"/>
</svg>
