<svg width="1219" height="243" viewBox="0 0 1219 243" fill="none" xmlns="http://www.w3.org/2000/svg">
<path fill-rule="evenodd" clip-rule="evenodd" d="M122.99 29.0195L31.7573 120.252L79.495 167.99L86.5391 160.946L45.8455 120.252L122.99 43.1077L161.977 82.0942V59.8631L168.192 59.8631V88.3098L200.135 120.252L159.441 160.946L166.485 167.99L214.223 120.252L178.154 84.1835V49.9013L152.015 49.9013L152.015 58.0442L122.99 29.0195ZM86.6733 173.317L122.99 137L159.307 173.317L122.99 209.633L86.6733 173.317ZM150.228 137.644L122.99 110.407L95.7526 137.644L78.3606 120.252L122.99 75.6228L167.62 120.252L150.228 137.644ZM95.7526 151.732L122.99 124.495L150.228 151.732L181.708 120.252L122.99 61.5346L64.2725 120.252L95.7526 151.732Z" fill="#FFA400"/>
<path d="M347.488 144.51H301.596V123.72H345.024C351.492 123.72 356.214 122.591 359.192 120.332C362.272 117.971 363.812 113.556 363.812 107.088C363.812 100.825 362.272 96.5133 359.192 94.152C356.214 91.7907 351.492 90.61 345.024 90.61H301.596V69.82H347.488C355.496 69.82 362.426 71.3087 368.278 74.286C374.13 77.1607 378.647 81.37 381.83 86.914C385.115 92.458 386.758 99.1827 386.758 107.088C386.758 114.993 385.115 121.769 381.83 127.416C378.647 132.96 374.13 137.221 368.278 140.198C362.426 143.073 355.496 144.51 347.488 144.51ZM316.688 173H293.588V69.82H316.688V173ZM472.875 173H451.315V154.674L450.083 154.366V127.416C450.083 122.385 448.8 118.997 446.233 117.252C443.769 115.507 439.457 114.634 433.297 114.634C427.445 114.634 423.236 115.507 420.669 117.252C418.102 118.997 416.819 122.077 416.819 126.492V127.108H393.565V126.646C393.565 120.281 395.259 114.685 398.647 109.86C402.035 104.932 406.809 101.133 412.969 98.464C419.232 95.692 426.572 94.306 434.991 94.306C443.615 94.306 450.699 95.692 456.243 98.464C461.89 101.236 466.048 105.137 468.717 110.168C471.489 115.096 472.875 120.948 472.875 127.724V173ZM418.667 174.54C410.351 174.54 403.832 172.692 399.109 168.996C394.386 165.3 392.025 160.269 392.025 153.904C392.025 150.003 392.949 146.666 394.797 143.894C396.645 141.122 399.417 138.915 403.113 137.272C406.809 135.527 411.429 134.346 416.973 133.73L451.623 130.188V143.432L423.287 146.666C420.515 146.871 418.462 147.436 417.127 148.36C415.895 149.181 415.279 150.516 415.279 152.364C415.279 154.417 416.1 155.906 417.743 156.83C419.386 157.754 421.901 158.216 425.289 158.216C430.833 158.216 435.402 157.703 438.995 156.676C442.588 155.649 445.309 154.007 447.157 151.748C449.108 149.387 450.083 146.255 450.083 142.354L452.239 142.2V155.29H450.083C448.338 161.245 444.796 165.967 439.457 169.458C434.221 172.846 427.291 174.54 418.667 174.54ZM538.946 173H519.85C510.815 173 503.731 170.793 498.598 166.378C493.464 161.963 490.898 154.879 490.898 145.126V80.908H513.998V142.508C513.998 146.409 514.819 149.027 516.462 150.362C518.207 151.594 521.082 152.21 525.086 152.21H538.946V173ZM538.946 114.942H478.732V95.846H538.946V114.942ZM634.146 173H611.046V132.652C611.046 126.184 609.506 121.667 606.426 119.1C603.448 116.431 598.315 115.096 591.026 115.096C585.892 115.096 581.837 115.815 578.86 117.252C575.882 118.689 573.778 120.845 572.546 123.72C571.314 126.492 570.698 130.034 570.698 134.346H567.31L567.618 119.408H571.93C572.751 114.993 574.342 110.887 576.704 107.088C579.065 103.289 582.402 100.209 586.713 97.848C591.128 95.4867 596.621 94.306 603.192 94.306C610.07 94.306 615.82 95.692 620.44 98.464C625.06 101.236 628.499 104.983 630.758 109.706C633.016 114.429 634.146 119.767 634.146 125.722V173ZM570.698 173H547.598V69.82H570.698V173ZM668.903 173H645.803V69.82H668.903V173ZM730.811 134.5H652.271V113.864H730.811V134.5ZM733.121 90.61H652.271V69.82H733.121V90.61ZM766.055 173H742.955V95.846H766.055V173ZM766.055 87.992H742.955V69.82H766.055V87.992ZM863.462 173H840.362V132.652C840.362 126.389 838.925 121.923 836.05 119.254C833.176 116.482 828.196 115.096 821.112 115.096C813.72 115.096 808.536 116.636 805.558 119.716C802.684 122.693 801.246 127.467 801.246 134.038H798.32L796.626 119.562H800.938C801.657 115.25 803.197 111.195 805.558 107.396C807.92 103.495 811.256 100.363 815.568 98.002C819.983 95.538 825.578 94.306 832.354 94.306C839.336 94.306 845.136 95.692 849.756 98.464C854.376 101.133 857.816 104.778 860.074 109.398C862.333 114.018 863.462 119.203 863.462 124.952V173ZM801.246 173H778.146V95.846H799.552V119.87L801.246 120.64V173ZM909.644 174.54C901.636 174.54 894.86 172.897 889.316 169.612C883.772 166.327 879.563 161.707 876.688 155.752C873.814 149.695 872.376 142.611 872.376 134.5C872.376 126.287 873.762 119.203 876.534 113.248C879.409 107.191 883.516 102.519 888.854 99.234C894.296 95.9487 900.815 94.306 908.412 94.306C917.55 94.306 924.582 96.3593 929.51 100.466C934.438 104.573 937.518 109.86 938.75 116.328H943.062V133.73H940.136C940.136 127.057 938.186 122.334 934.284 119.562C930.486 116.79 924.89 115.404 917.498 115.404C912.57 115.404 908.464 116.02 905.178 117.252C901.996 118.484 899.634 120.486 898.094 123.258C896.554 125.927 895.784 129.675 895.784 134.5C895.784 139.12 896.554 142.816 898.094 145.588C899.634 148.36 901.996 150.362 905.178 151.594C908.464 152.826 912.57 153.442 917.498 153.442C922.426 153.442 926.533 152.826 929.818 151.594C933.206 150.362 935.773 148.411 937.518 145.742C939.264 142.97 940.136 139.377 940.136 134.962H943.062L944.602 151.594H940.444C939.007 159.191 935.722 164.941 930.588 168.842C925.455 172.641 918.474 174.54 909.644 174.54ZM963.236 173H941.676V150.208L940.136 148.206V69.82H963.236V173ZM1016.42 174.54C1007.9 174.54 1000.36 173.103 993.785 170.228C987.214 167.353 982.132 162.939 978.539 156.984C974.945 151.029 973.149 143.535 973.149 134.5C973.149 126.287 974.945 119.203 978.539 113.248C982.132 107.191 987.111 102.519 993.477 99.234C999.945 95.9487 1007.44 94.306 1015.96 94.306C1024.38 94.306 1031.72 95.7433 1037.98 98.618C1044.35 101.493 1049.28 105.753 1052.77 111.4C1056.26 116.944 1058 123.72 1058 131.728C1058 133.063 1057.95 134.295 1057.85 135.424C1057.75 136.553 1057.59 137.785 1057.39 139.12H988.087V126.954H1041.06L1035.83 134.5C1035.83 133.473 1035.83 132.498 1035.83 131.574C1035.83 130.65 1035.83 129.726 1035.83 128.802C1035.83 122.95 1034.24 118.741 1031.05 116.174C1027.87 113.607 1022.69 112.324 1015.5 112.324C1007.7 112.324 1002.25 113.864 999.175 116.944C996.095 119.921 994.555 124.695 994.555 131.266V137.118C994.555 143.689 996.095 148.514 999.175 151.594C1002.25 154.571 1007.75 156.06 1015.65 156.06C1022.43 156.06 1027.2 155.187 1029.97 153.442C1032.75 151.697 1034.13 149.181 1034.13 145.896V144.356H1057.23V146.05C1057.23 151.594 1055.54 156.522 1052.15 160.834C1048.76 165.146 1043.99 168.534 1037.83 170.998C1031.77 173.359 1024.64 174.54 1016.42 174.54ZM1090.9 173H1067.8V95.846H1089.2V117.868L1090.9 118.638V173ZM1090.9 128.34H1086.28V116.328H1090.59C1091.31 112.119 1092.7 108.371 1094.75 105.086C1096.9 101.698 1099.78 99.08 1103.37 97.232C1106.97 95.2813 1111.33 94.306 1116.46 94.306C1122.31 94.306 1126.99 95.538 1130.48 98.002C1134.07 100.363 1136.69 103.597 1138.33 107.704C1139.97 111.708 1140.79 116.225 1140.79 121.256V134.038H1117.69V126.03C1117.69 121.718 1116.72 118.638 1114.77 116.79C1112.92 114.839 1109.64 113.864 1104.91 113.864C1099.78 113.864 1096.13 115.045 1093.98 117.406C1091.93 119.767 1090.9 123.412 1090.9 128.34Z" fill="#22201F"/>
</svg>
